<svg width="817" height="140" viewBox="0 0 817 140" fill="none" xmlns="http://www.w3.org/2000/svg">
<path d="M774.943 139.418C767.508 139.418 762.221 137.211 759.084 132.796C755.947 128.381 754.379 121.642 754.379 112.58C754.379 110.024 754.669 106.422 755.25 101.775C755.831 97.0118 756.586 91.7255 757.516 85.9164C758.562 80.1073 759.549 74.3563 760.479 68.6634C758.039 69.1281 755.657 69.6509 753.333 70.2319C751.126 70.8128 749.035 71.4518 747.06 72.1488C746.595 70.4061 746.246 68.6634 746.014 66.9207C745.898 65.1779 745.84 63.8999 745.84 63.0867C745.84 57.0452 747.582 52.6884 751.068 50.0162C754.669 47.2278 758.968 45.8337 763.964 45.8337C763.964 43.1615 763.615 40.1988 762.918 36.9458C762.221 33.6927 761.001 30.091 759.259 26.1409C764.138 22.5392 769.018 19.5185 773.898 17.0787C778.777 14.6389 784.18 13.4189 790.105 13.4189C795.217 13.4189 798.76 14.4065 800.736 16.3816C802.711 18.2405 803.698 21.3774 803.698 25.7923C803.698 27.9998 803.466 30.6138 803.001 33.6346C802.536 36.6553 801.955 39.9665 801.258 43.5681C803.814 43.2196 806.254 42.8129 808.578 42.3482C810.901 41.7673 813.167 41.1864 815.374 40.6055C815.839 41.8835 816.13 43.2196 816.246 44.6138C816.478 45.8918 816.594 47.1698 816.594 48.4478C816.594 53.095 815.142 57.1614 812.237 60.6469C809.449 64.0161 805.092 65.7008 799.167 65.7008H796.553C794.926 73.1364 793.474 80.7463 792.196 88.5305C790.918 96.3147 790.279 103.576 790.279 110.315C790.279 114.846 790.686 118.912 791.499 122.514C792.429 125.999 793.823 128.787 795.682 130.879C789.175 136.572 782.263 139.418 774.943 139.418Z" fill="white"/>
<path d="M672.419 139.418C665.332 139.418 660.278 137.559 657.257 133.841C654.237 130.123 652.726 124.779 652.726 117.808C652.726 115.368 653.075 111.651 653.772 106.655C654.469 101.543 655.34 95.9079 656.386 89.7503C657.548 83.4765 658.768 77.2026 660.046 70.9288C661.324 64.655 662.544 59.0783 663.706 54.1986L654.643 40.2568C660.685 37.5846 666.261 35.3191 671.373 33.4602C676.602 31.4851 681.249 30.4976 685.315 30.4976C688.336 30.4976 690.544 31.5432 691.938 33.6345C693.332 35.7257 694.029 38.3979 694.029 41.651C694.029 45.3688 693.39 49.5514 692.112 54.1986C690.834 58.7297 689.556 63.0285 688.278 67.0948L690.021 67.9662C694.087 55.9995 698.676 46.763 703.788 40.2568C709.016 33.7506 714.825 30.4976 721.215 30.4976C725.398 30.4976 728.767 31.427 731.323 33.2859C733.879 35.0287 735.738 37.2361 736.9 39.9083C738.178 42.4643 738.817 44.9622 738.817 47.402C738.817 51.236 737.829 54.9538 735.854 58.5555C733.995 62.0409 730.975 64.9455 726.792 67.2691C722.61 69.4766 717.091 70.5803 710.236 70.5803C707.564 70.5803 704.95 71.1612 702.394 72.323C699.838 73.4848 697.514 75.6923 695.423 78.9454C693.332 82.0823 691.647 86.5553 690.369 92.3644C689.207 98.1735 688.626 105.725 688.626 115.02C688.626 122.223 689.846 127.509 692.286 130.879C685.083 136.572 678.461 139.418 672.419 139.418Z" fill="white"/>
<path d="M554.379 139.418C547.873 139.418 542.122 137.733 537.126 134.364C532.247 130.995 528.471 126.231 525.799 120.074C523.126 113.916 521.79 106.713 521.79 98.4639C521.79 88.8208 523.475 79.8748 526.844 71.6259C530.33 63.377 535.093 56.1737 541.135 50.0161C547.292 43.8585 554.495 39.095 562.744 35.7257C570.993 32.2403 579.939 30.4976 589.582 30.4976C592.371 30.4976 594.753 30.6137 596.728 30.8461C598.819 30.9623 601.026 31.3108 603.35 31.8917C604.047 35.1448 604.454 37.9913 604.57 40.4311C607.242 38.6884 610.205 37.3523 613.458 36.4228C616.711 35.3772 619.732 34.8544 622.52 34.8544C631.001 34.8544 635.242 39.4436 635.242 48.6219C635.242 51.6427 634.661 55.7671 633.499 60.9953C632.454 66.1073 631.175 71.8002 629.665 78.074C628.271 84.2316 626.993 90.5636 625.831 97.0697C624.785 103.46 624.263 109.443 624.263 115.02C624.263 122.572 626.063 127.858 629.665 130.879C623.159 136.572 616.246 139.418 608.927 139.418C602.188 139.418 597.192 137.327 593.939 133.144C590.802 128.962 589.234 122.455 589.234 113.626L587.491 112.754C584.354 121.119 579.823 127.684 573.898 132.447C568.089 137.094 561.583 139.418 554.379 139.418ZM568.147 107.7C572.678 107.7 577.093 106.074 581.392 102.821C585.69 99.5677 589.292 95.0947 592.196 89.4017C592.661 84.8706 593.126 80.63 593.591 76.6798C594.172 72.6135 594.869 68.3147 595.682 63.7837C596.611 59.2526 597.715 53.9082 598.993 47.7506C593.068 47.7506 587.433 48.9124 582.089 51.236C576.861 53.4435 572.155 56.5223 567.973 60.4725C563.79 64.4226 560.479 68.9537 558.039 74.0657C555.715 79.0616 554.554 84.3478 554.554 89.9246C554.554 95.6175 555.715 100.032 558.039 103.169C560.479 106.19 563.848 107.7 568.147 107.7Z" fill="white"/>
<path d="M347.716 139.418C340.397 139.418 335.169 137.559 332.032 133.841C328.895 130.123 327.326 124.779 327.326 117.808C327.326 115.368 327.675 111.651 328.372 106.655C329.069 101.543 329.941 95.9079 330.986 89.7503C332.148 83.4765 333.368 77.2026 334.646 70.9288C335.924 64.655 337.144 59.0783 338.306 54.1986L329.243 40.2568C334.007 37.5846 339.119 35.3191 344.579 33.4602C350.156 31.4851 355.791 30.4976 361.484 30.4976C366.364 30.4976 369.965 31.7175 372.289 34.1573C374.612 36.4809 375.774 39.6759 375.774 43.7423C375.774 46.763 375.368 49.8999 374.554 53.153C373.741 56.4061 372.812 59.1945 371.766 61.5181L373.509 62.3895C380.363 50.6551 387.567 42.4062 395.119 37.6427C402.67 32.8793 410.687 30.4976 419.168 30.4976C425.326 30.4976 430.38 32.066 434.33 35.2029C438.28 38.2236 440.255 43.1614 440.255 50.0161C440.255 53.5016 439.674 57.3356 438.512 61.5181L440.255 62.3895C447.11 50.6551 454.313 42.4062 461.865 37.6427C469.417 32.8793 477.433 30.4976 485.915 30.4976C493.002 30.4976 498.288 32.2403 501.773 35.7257C505.259 39.095 507.002 44.3813 507.002 51.5846C507.002 57.8584 506.13 64.5388 504.388 71.6259C502.761 78.5968 501.076 85.8001 499.334 93.2357C497.591 100.555 496.72 107.817 496.72 115.02C496.72 122.223 497.939 127.509 500.379 130.879C494.222 136.572 487.832 139.418 481.209 139.418C473.89 139.418 468.662 137.559 465.525 133.841C462.388 130.123 460.819 124.779 460.819 117.808C460.819 113.974 461.342 109.734 462.388 105.086C463.433 100.323 464.653 95.5013 466.048 90.6217C467.442 85.742 468.662 81.1528 469.707 76.8541C470.753 72.5554 471.276 68.8376 471.276 65.7006C471.276 63.2608 470.811 61.3438 469.882 59.9496C469.068 58.5555 467.558 57.8584 465.35 57.8584C462.214 57.8584 458.612 59.2526 454.546 62.0409C450.595 64.8293 446.703 68.7795 442.869 73.8915C439.151 78.8873 436.073 84.8706 433.633 91.8416C431.193 98.8125 429.973 106.539 429.973 115.02C429.973 122.223 431.193 127.509 433.633 130.879C427.475 136.572 421.085 139.418 414.463 139.418C407.143 139.418 401.915 137.559 398.778 133.841C395.641 130.123 394.073 124.779 394.073 117.808C394.073 113.974 394.596 109.734 395.641 105.086C396.687 100.323 397.907 95.5013 399.301 90.6217C400.695 85.742 401.915 81.1528 402.961 76.8541C404.006 72.5554 404.529 68.8376 404.529 65.7006C404.529 63.2608 404.065 61.3438 403.135 59.9496C402.322 58.5555 400.811 57.8584 398.604 57.8584C395.467 57.8584 391.865 59.2526 387.799 62.0409C383.849 64.8293 379.957 68.7795 376.123 73.8915C372.405 78.8873 369.326 84.8706 366.886 91.8416C364.447 98.8125 363.227 106.539 363.227 115.02C363.227 122.223 364.447 127.509 366.886 130.879C360.729 136.572 354.339 139.418 347.716 139.418Z" fill="white"/>
<path d="M282.579 139.418C275.492 139.418 270.438 137.211 267.417 132.796C264.397 128.381 262.886 121.642 262.886 112.58C262.886 110.024 263.177 106.248 263.758 101.252C264.455 96.2566 265.326 90.5637 266.372 84.1737C267.417 77.7837 268.579 71.1614 269.857 64.3066C271.135 57.3357 272.355 50.5972 273.517 44.091C274.679 37.5848 275.724 31.7757 276.654 26.6637L266.895 12.7219C273.052 9.12027 278.919 6.09954 284.496 3.65973C290.073 1.21991 295.65 0 301.226 0C306.106 0 309.475 0.987546 311.334 2.96264C313.309 4.82154 314.297 7.95845 314.297 12.3734C314.297 16.4397 313.774 21.5517 312.728 27.7094C311.683 33.7508 310.405 40.3732 308.894 47.5765C307.384 54.6635 305.816 61.983 304.189 69.5348C302.679 77.0866 301.401 84.348 300.355 91.3189C299.309 98.2898 298.787 104.622 298.787 110.315C298.787 114.846 299.193 118.912 300.006 122.514C300.936 125.999 302.33 128.788 304.189 130.879C296.056 136.572 288.853 139.418 282.579 139.418Z" fill="white"/>
<path d="M161.925 139.418C155.419 139.418 149.668 137.733 144.672 134.364C139.793 130.995 136.017 126.231 133.344 120.074C130.672 113.916 129.336 106.713 129.336 98.4639C129.336 88.8208 131.021 79.8748 134.39 71.6259C137.876 63.377 142.639 56.1737 148.68 50.0161C154.838 43.8585 162.041 39.095 170.29 35.7257C178.539 32.2403 187.485 30.4976 197.128 30.4976C199.917 30.4976 202.298 30.6137 204.273 30.8461C206.365 30.9623 208.572 31.3108 210.896 31.8917C211.593 35.1448 212 37.9913 212.116 40.4311C214.788 38.6884 217.751 37.3523 221.004 36.4228C224.257 35.3772 227.277 34.8544 230.066 34.8544C238.547 34.8544 242.788 39.4436 242.788 48.6219C242.788 51.6427 242.207 55.7671 241.045 60.9953C239.999 66.1073 238.721 71.8002 237.211 78.074C235.817 84.2316 234.539 90.5636 233.377 97.0697C232.331 103.46 231.809 109.443 231.809 115.02C231.809 122.572 233.609 127.858 237.211 130.879C230.705 136.572 223.792 139.418 216.473 139.418C209.734 139.418 204.738 137.327 201.485 133.144C198.348 128.962 196.78 122.455 196.78 113.626L195.037 112.754C191.9 121.119 187.369 127.684 181.444 132.447C175.635 137.094 169.128 139.418 161.925 139.418ZM175.693 107.7C180.224 107.7 184.639 106.074 188.937 102.821C193.236 99.5677 196.838 95.0947 199.742 89.4017C200.207 84.8706 200.672 80.63 201.137 76.6798C201.717 72.6135 202.415 68.3147 203.228 63.7837C204.157 59.2526 205.261 53.9082 206.539 47.7506C200.614 47.7506 194.979 48.9124 189.635 51.236C184.406 53.4435 179.701 56.5223 175.518 60.4725C171.336 64.4226 168.025 68.9537 165.585 74.0657C163.261 79.0616 162.099 84.3478 162.099 89.9246C162.099 95.6175 163.261 100.032 165.585 103.169C168.025 106.19 171.394 107.7 175.693 107.7Z" fill="white"/>
<path d="M52.9789 139.418C41.2445 139.418 32.9375 137.792 28.0579 134.539C23.1783 131.169 20.7385 125.709 20.7385 118.157C20.7385 110.954 20.7385 104.912 20.7385 100.033C20.8546 95.0367 20.9127 90.3894 20.9127 86.0907C20.9127 79.4683 20.6804 72.7879 20.2156 66.0493C19.7509 59.3108 18.8215 52.8627 17.4273 46.7051C16.0331 40.5474 13.9418 34.9707 11.1535 29.9749C8.36509 24.9791 4.64727 20.9127 0 17.7758C7.90036 11.7343 16.9625 8.71362 27.1865 8.71362C34.2736 8.71362 39.9085 10.7468 44.091 14.8132C48.2735 18.8795 51.4105 24.3401 53.5017 31.1948C55.593 37.9333 56.9291 45.4271 57.51 53.676C58.2071 61.8087 58.5556 69.9995 58.5556 78.2484C58.5556 83.5928 58.4395 88.7629 58.2071 93.7587C58.0909 98.7545 58.0328 103.344 58.0328 107.526H62.5639C65.2361 101.717 68.0825 95.1529 71.1033 87.8334C74.124 80.514 76.9705 73.0783 79.6426 65.5265C82.3148 57.9747 84.4642 50.8295 86.0907 44.091C87.8335 37.3524 88.7048 31.7176 88.7048 27.1865C88.7048 25.2114 88.5305 23.4687 88.182 21.9583C87.8335 20.3318 87.3687 18.9376 86.7878 17.7758C91.2027 14.7551 95.3272 12.4895 99.1612 10.9792C103.111 9.4688 107.12 8.71362 111.186 8.71362C117.576 8.71362 122.049 10.5725 124.605 14.2903C127.277 17.892 128.613 22.5973 128.613 28.4064C128.613 32.7052 127.8 37.7591 126.173 43.5682C124.547 49.3773 122.398 55.5349 119.725 62.0411C117.169 68.5473 114.439 75.0534 111.535 81.5596C108.63 87.9496 105.784 93.9911 102.995 99.684C100.323 105.377 98.1155 110.315 96.3728 114.497L98.8126 124.082C95.5595 126.754 91.4351 129.252 86.4393 131.576C81.5596 133.9 76.2153 135.758 70.4062 137.153C64.7133 138.663 58.9042 139.418 52.9789 139.418Z" fill="white"/>
</svg>
