<svg xmlns="http://www.w3.org/2000/svg" viewBox="0 0 512 512">
  <rect width="512" height="512" rx="115" fill="#2042FF"/>
  <!-- V letter from Valmart wordmark, scaled and centered -->
  <g transform="translate(71.6, 56) scale(2.868)">
    <path d="M52.9789 139.418C41.2445 139.418 32.9375 137.792 28.0579 134.539C23.1783 131.169 20.7385 125.709 20.7385 118.157C20.7385 110.954 20.7385 104.912 20.7385 100.033C20.8546 95.0367 20.9127 90.3894 20.9127 86.0907C20.9127 79.4683 20.6804 72.7879 20.2156 66.0493C19.7509 59.3108 18.8215 52.8627 17.4273 46.7051C16.0331 40.5474 13.9418 34.9707 11.1535 29.9749C8.36509 24.9791 4.64727 20.9127 0 17.7758C7.90036 11.7343 16.9625 8.71362 27.1865 8.71362C34.2736 8.71362 39.9085 10.7468 44.091 14.8132C48.2735 18.8795 51.4105 24.3401 53.5017 31.1948C55.593 37.9333 56.9291 45.4271 57.51 53.676C58.2071 61.8087 58.5556 69.9995 58.5556 78.2484C58.5556 83.5928 58.4395 88.7629 58.2071 93.7587C58.0909 98.7545 58.0328 103.344 58.0328 107.526H62.5639C65.2361 101.717 68.0825 95.1529 71.1033 87.8334C74.124 80.514 76.9705 73.0783 79.6426 65.5265C82.3148 57.9747 84.4642 50.8295 86.0907 44.091C87.8335 37.3524 88.7048 31.7176 88.7048 27.1865C88.7048 25.2114 88.5305 23.4687 88.182 21.9583C87.8335 20.3318 87.3687 18.9376 86.7878 17.7758C91.2027 14.7551 95.3272 12.4895 99.1612 10.9792C103.111 9.4688 107.12 8.71362 111.186 8.71362C117.576 8.71362 122.049 10.5725 124.605 14.2903C127.277 17.892 128.613 22.5973 128.613 28.4064C128.613 32.7052 127.8 37.7591 126.173 43.5682C124.547 49.3773 122.398 55.5349 119.725 62.0411C117.169 68.5473 114.439 75.0534 111.535 81.5596C108.63 87.9496 105.784 93.9911 102.995 99.684C100.323 105.377 98.1155 110.315 96.3728 114.497L98.8126 124.082C95.5595 126.754 91.4351 129.252 86.4393 131.576C81.5596 133.9 76.2153 135.758 70.4062 137.153C64.7133 138.663 58.9042 139.418 52.9789 139.418Z" fill="white"/>
  </g>
</svg>
